<svg id="visual" viewBox="0 0 900 600" width="100%" height="100%" xmlns="http://www.w3.org/2000/svg" xmlns:xlink="http://www.w3.org/1999/xlink" version="1.1"><rect x="0" y="0" width="900" height="600" fill="#21282e"></rect><path d="M0 449L18.8 450.5C37.7 452 75.3 455 112.8 460.5C150.3 466 187.7 474 225.2 480.3C262.7 486.7 300.3 491.3 337.8 486C375.3 480.7 412.7 465.3 450.2 461C487.7 456.7 525.3 463.3 562.8 469.7C600.3 476 637.7 482 675.2 484.3C712.7 486.7 750.3 485.3 787.8 485.5C825.3 485.7 862.7 487.3 881.3 488.2L900 489L900 601L881.3 601C862.7 601 825.3 601 787.8 601C750.3 601 712.7 601 675.2 601C637.7 601 600.3 601 562.8 601C525.3 601 487.7 601 450.2 601C412.7 601 375.3 601 337.8 601C300.3 601 262.7 601 225.2 601C187.7 601 150.3 601 112.8 601C75.3 601 37.7 601 18.8 601L0 601Z" fill="#f45d5d"></path><path d="M0 503L18.8 498.7C37.7 494.3 75.3 485.7 112.8 487.8C150.3 490 187.7 503 225.2 502.5C262.7 502 300.3 488 337.8 488.2C375.3 488.3 412.7 502.7 450.2 506.2C487.7 509.7 525.3 502.3 562.8 501.8C600.3 501.3 637.7 507.7 675.2 511.3C712.7 515 750.3 516 787.8 510.2C825.3 504.3 862.7 491.7 881.3 485.3L900 479L900 601L881.3 601C862.7 601 825.3 601 787.8 601C750.3 601 712.7 601 675.2 601C637.7 601 600.3 601 562.8 601C525.3 601 487.7 601 450.2 601C412.7 601 375.3 601 337.8 601C300.3 601 262.7 601 225.2 601C187.7 601 150.3 601 112.8 601C75.3 601 37.7 601 18.8 601L0 601Z" fill="#db665b"></path><path d="M0 535L18.8 534.2C37.7 533.3 75.3 531.7 112.8 528C150.3 524.3 187.7 518.7 225.2 517.7C262.7 516.7 300.3 520.3 337.8 522.5C375.3 524.7 412.7 525.3 450.2 522.3C487.7 519.3 525.3 512.7 562.8 512.3C600.3 512 637.7 518 675.2 520.3C712.7 522.7 750.3 521.3 787.8 517.8C825.3 514.3 862.7 508.7 881.3 505.8L900 503L900 601L881.3 601C862.7 601 825.3 601 787.8 601C750.3 601 712.7 601 675.2 601C637.7 601 600.3 601 562.8 601C525.3 601 487.7 601 450.2 601C412.7 601 375.3 601 337.8 601C300.3 601 262.7 601 225.2 601C187.7 601 150.3 601 112.8 601C75.3 601 37.7 601 18.8 601L0 601Z" fill="#c16c5b"></path><path d="M0 553L18.8 547.8C37.7 542.7 75.3 532.3 112.8 531C150.3 529.7 187.7 537.3 225.2 538.7C262.7 540 300.3 535 337.8 534.8C375.3 534.7 412.7 539.3 450.2 540.7C487.7 542 525.3 540 562.8 536.2C600.3 532.3 637.7 526.7 675.2 524.5C712.7 522.3 750.3 523.7 787.8 525C825.3 526.3 862.7 527.7 881.3 528.3L900 529L900 601L881.3 601C862.7 601 825.3 601 787.8 601C750.3 601 712.7 601 675.2 601C637.7 601 600.3 601 562.8 601C525.3 601 487.7 601 450.2 601C412.7 601 375.3 601 337.8 601C300.3 601 262.7 601 225.2 601C187.7 601 150.3 601 112.8 601C75.3 601 37.7 601 18.8 601L0 601Z" fill="#a96f5f"></path><path d="M0 569L18.8 567.3C37.7 565.7 75.3 562.3 112.8 562.2C150.3 562 187.7 565 225.2 566.3C262.7 567.7 300.3 567.3 337.8 562.7C375.3 558 412.7 549 450.2 547.8C487.7 546.7 525.3 553.3 562.8 555.5C600.3 557.7 637.7 555.3 675.2 553.3C712.7 551.3 750.3 549.7 787.8 551.7C825.3 553.7 862.7 559.3 881.3 562.2L900 565L900 601L881.3 601C862.7 601 825.3 601 787.8 601C750.3 601 712.7 601 675.2 601C637.7 601 600.3 601 562.8 601C525.3 601 487.7 601 450.2 601C412.7 601 375.3 601 337.8 601C300.3 601 262.7 601 225.2 601C187.7 601 150.3 601 112.8 601C75.3 601 37.7 601 18.8 601L0 601Z" fill="#8f7066"></path><path d="M0 575L18.8 575.2C37.7 575.3 75.3 575.7 112.8 573.7C150.3 571.7 187.7 567.3 225.2 567.2C262.7 567 300.3 571 337.8 572.3C375.3 573.7 412.7 572.3 450.2 573.2C487.7 574 525.3 577 562.8 578.3C600.3 579.7 637.7 579.3 675.2 577.2C712.7 575 750.3 571 787.8 569.5C825.3 568 862.7 569 881.3 569.5L900 570L900 601L881.3 601C862.7 601 825.3 601 787.8 601C750.3 601 712.7 601 675.2 601C637.7 601 600.3 601 562.8 601C525.3 601 487.7 601 450.2 601C412.7 601 375.3 601 337.8 601C300.3 601 262.7 601 225.2 601C187.7 601 150.3 601 112.8 601C75.3 601 37.7 601 18.8 601L0 601Z" fill="#75706e"></path></svg>